# xmcd
#
# Track frame offsets:
#	150
#	14475
#	25597
#	38741
#	55528
#	69559
#	85172
#	96819
#	110251
#	119366
#	133078
#	150723
#	164754
#	177901
#	189604
#	200380
#	208897
#
# Disc length: 2927 seconds
# Revision: 0
# Processed by: cddbd v1.5.2PL0 Copyright (c) Steve Scherf et al.
# Submitted via: dBpowerAMP V12.0
#
DISCID=e70b6d11
DTITLE=Various Artist - BLUEGRASS
DYEAR=2000
DGENRE=Bluegrass
TTITLE0=KENNY SMITH - Studebaker
TTITLE1=TRUE LIFE BLUES - Heavy Traffic Ahead
TTITLE2=LONESOME RIVER BAND - Sweet Sally Brown
TTITLE3=CLAIRE LYNCH - Silver And Gold
TTITLE4=TONY FURTADO - Waterslide
TTITLE5=THE DEL McCOURY BAND - Blackjack County Chains
TTITLE6=JERRY DOUGLAS and PETER ROWAN - You Taught Me How To Loose
TTITLE7=SAM BUSH - Howlin' At The Moon
TTITLE8=RONNIE BOWMAN - Voice In The Wildreness
TTITLE9=CHESAPEAKE - Guilty
TTITLE10=MOLLIE O'BRIEN - Big Red Sun Blues
TTITLE11=THE DEL McCOURY BAND - Member Of The Blues
TTITLE12=NASHVILLE BLUEGRASS BAND - Red Clay Halo
TTITLE13=CLAIRE LYNCH - If Wishes Were Horses
TTITLE14=RADIM ZENKEL - Twin Peaks
TTITLE15=DOYLE LAWSON AND QUICKSILVER - I'm Finding Joy In My Savior's Love
TTITLE16=LAUREL CANYON RAMBLERS - Hold On
EXTD=
EXTT0=
EXTT1=
EXTT2=
EXTT3=
EXTT4=
EXTT5=
EXTT6=
EXTT7=
EXTT8=
EXTT9=
EXTT10=
EXTT11=
EXTT12=
EXTT13=
EXTT14=
EXTT15=
EXTT16=
PLAYORDER=
